<svg xmlns="http://www.w3.org/2000/svg" xmlns:xlink="http://www.w3.org/1999/xlink" width="576" zoomAndPan="magnify" viewBox="0 0 432 464.999988" height="620" preserveAspectRatio="xMidYMid meet" version="1.0"><defs><g/><clipPath id="fe09a4bdbd"><path d="M 51.191406 127.277344 L 381.410156 127.277344 L 381.410156 351.761719 L 51.191406 351.761719 Z M 51.191406 127.277344 " clip-rule="nonzero"/></clipPath><clipPath id="14b6664c6e"><path d="M 0.191406 0.277344 L 330.410156 0.277344 L 330.410156 224.761719 L 0.191406 224.761719 Z M 0.191406 0.277344 " clip-rule="nonzero"/></clipPath><clipPath id="4aa60561d4"><rect x="0" width="331" y="0" height="225"/></clipPath></defs><g clip-path="url(#fe09a4bdbd)"><g transform="matrix(1, 0, 0, 1, 51, 127)"><g clip-path="url(#4aa60561d4)"><g clip-path="url(#14b6664c6e)"><path fill="#000000" d="M 0.191406 0.277344 L 330.777344 0.277344 L 330.777344 224.761719 L 0.191406 224.761719 Z M 0.191406 0.277344 " fill-opacity="1" fill-rule="nonzero"/></g></g></g></g><g fill="#00f0ff" fill-opacity="1"><g transform="translate(57.610619, 363.657602)"><g><path d="M 7.203125 -28.796875 L 7.203125 -43.203125 L 50.40625 -43.203125 L 50.40625 -28.796875 Z M 7.203125 -28.796875 "/></g></g></g><g fill="#00f0ff" fill-opacity="1"><g transform="translate(109.450601, 363.657602)"><g><path d="M 7.203125 -28.796875 L 7.203125 -43.203125 L 50.40625 -43.203125 L 50.40625 -28.796875 Z M 7.203125 -28.796875 "/></g></g></g><g fill="#00f0ff" fill-opacity="1"><g transform="translate(161.290582, 363.657602)"><g><path d="M 7.203125 -28.796875 L 7.203125 -43.203125 L 50.40625 -43.203125 L 50.40625 -28.796875 Z M 7.203125 -28.796875 "/></g></g></g><g fill="#00f0ff" fill-opacity="1"><g transform="translate(213.130564, 363.657602)"><g><path d="M 7.203125 -28.796875 L 7.203125 -43.203125 L 50.40625 -43.203125 L 50.40625 -28.796875 Z M 7.203125 -28.796875 "/></g></g></g><g fill="#00f0ff" fill-opacity="1"><g transform="translate(264.970545, 363.657602)"><g><path d="M 7.203125 -28.796875 L 7.203125 -43.203125 L 50.40625 -43.203125 L 50.40625 -28.796875 Z M 7.203125 -28.796875 "/></g></g></g><g fill="#00f0ff" fill-opacity="1"><g transform="translate(316.810538, 363.657602)"><g><path d="M 7.203125 -28.796875 L 7.203125 -43.203125 L 50.40625 -43.203125 L 50.40625 -28.796875 Z M 7.203125 -28.796875 "/></g></g></g><g fill="#00f0ff" fill-opacity="1"><g transform="translate(57.599997, 283.167374)"><g><path d="M 7.203125 28.796875 L 7.203125 -115.203125 L 21.59375 -115.203125 L 21.59375 28.796875 Z M 7.203125 28.796875 "/></g></g></g><g fill="#00ff00" fill-opacity="1"><g transform="translate(86.404682, 283.167374)"><g><path d="M 64.796875 -14.40625 L 64.796875 0 L 21.59375 0 L 21.59375 -14.40625 Z M 7.203125 -14.40625 L 7.203125 -86.40625 L 21.59375 -86.40625 L 21.59375 -14.40625 Z M 21.59375 -86.40625 L 21.59375 -100.796875 L 64.796875 -100.796875 L 64.796875 -86.40625 Z M 50.40625 -43.203125 L 50.40625 -57.59375 L 79.203125 -57.59375 L 79.203125 -14.40625 L 64.796875 -14.40625 L 64.796875 -43.203125 Z M 64.796875 -72 L 64.796875 -86.40625 L 79.203125 -86.40625 L 79.203125 -72 Z M 64.796875 -72 "/></g></g></g><g fill="#0d00ff" fill-opacity="1"><g transform="translate(172.80702, 283.167374)"><g><path d="M 7.203125 0 L 7.203125 -100.796875 L 21.59375 -100.796875 L 21.59375 -14.40625 L 79.203125 -14.40625 L 79.203125 0 Z M 7.203125 0 "/></g></g></g><g fill="#ff0000" fill-opacity="1"><g transform="translate(259.209358, 283.167374)"><g><path d="M 7.203125 0 L 7.203125 -100.796875 L 64.796875 -100.796875 L 64.796875 -86.40625 L 21.59375 -86.40625 L 21.59375 -57.59375 L 64.796875 -57.59375 L 64.796875 -43.203125 L 50.40625 -43.203125 L 50.40625 -28.796875 L 36 -28.796875 L 36 -43.203125 L 21.59375 -43.203125 L 21.59375 0 Z M 50.40625 -14.40625 L 50.40625 -28.796875 L 64.796875 -28.796875 L 64.796875 -14.40625 Z M 64.796875 0 L 64.796875 -14.40625 L 79.203125 -14.40625 L 79.203125 0 Z M 64.796875 -57.59375 L 64.796875 -86.40625 L 79.203125 -86.40625 L 79.203125 -57.59375 Z M 64.796875 -57.59375 "/></g></g></g><g fill="#00f0ff" fill-opacity="1"><g transform="translate(345.6117, 283.167374)"><g><path d="M 7.203125 28.796875 L 7.203125 -115.203125 L 21.59375 -115.203125 L 21.59375 28.796875 Z M 7.203125 28.796875 "/></g></g></g><g fill="#00f0ff" fill-opacity="1"><g transform="translate(57.610619, 186.449987)"><g><path d="M 7.203125 -28.796875 L 7.203125 -43.203125 L 50.40625 -43.203125 L 50.40625 -28.796875 Z M 7.203125 -28.796875 "/></g></g></g><g fill="#00f0ff" fill-opacity="1"><g transform="translate(109.450601, 186.449987)"><g><path d="M 7.203125 -28.796875 L 7.203125 -43.203125 L 50.40625 -43.203125 L 50.40625 -28.796875 Z M 7.203125 -28.796875 "/></g></g></g><g fill="#00f0ff" fill-opacity="1"><g transform="translate(161.290582, 186.449987)"><g><path d="M 7.203125 -28.796875 L 7.203125 -43.203125 L 50.40625 -43.203125 L 50.40625 -28.796875 Z M 7.203125 -28.796875 "/></g></g></g><g fill="#00f0ff" fill-opacity="1"><g transform="translate(213.130564, 186.449987)"><g><path d="M 7.203125 -28.796875 L 7.203125 -43.203125 L 50.40625 -43.203125 L 50.40625 -28.796875 Z M 7.203125 -28.796875 "/></g></g></g><g fill="#00f0ff" fill-opacity="1"><g transform="translate(264.970545, 186.449987)"><g><path d="M 7.203125 -28.796875 L 7.203125 -43.203125 L 50.40625 -43.203125 L 50.40625 -28.796875 Z M 7.203125 -28.796875 "/></g></g></g><g fill="#00f0ff" fill-opacity="1"><g transform="translate(316.810538, 186.449987)"><g><path d="M 7.203125 -28.796875 L 7.203125 -43.203125 L 50.40625 -43.203125 L 50.40625 -28.796875 Z M 7.203125 -28.796875 "/></g></g></g></svg>