<svg version="1.0" preserveAspectRatio="xMidYMid meet" viewBox="63.75 83.474997668 195.1851851851852 211.04999410400004" zoomAndPan="magnify" xmlns:xlink="http://www.w3.org/1999/xlink" xmlns="http://www.w3.org/2000/svg" style="max-height: 500px" width="195.1851851851852" height="211.04999410400004"><defs><g/></defs><g fill-opacity="1" fill="#00ff00"><g transform="translate(57.554861, 186.303278)"><g><path d="M 64.75 -14.390625 L 64.75 0 L 21.578125 0 L 21.578125 -14.390625 Z M 7.1875 -14.390625 L 7.1875 -86.328125 L 21.578125 -86.328125 L 21.578125 -14.390625 Z M 21.578125 -86.328125 L 21.578125 -100.71875 L 64.75 -100.71875 L 64.75 -86.328125 Z M 50.359375 -43.171875 L 50.359375 -57.5625 L 79.140625 -57.5625 L 79.140625 -14.390625 L 64.75 -14.390625 L 64.75 -43.171875 Z M 64.75 -71.9375 L 64.75 -86.328125 L 79.140625 -86.328125 L 79.140625 -71.9375 Z M 64.75 -71.9375"/></g></g></g><g fill-opacity="1" fill="#00ff00"><g transform="translate(119.631575, 234.127983)"><g><path d="M 7.1875 0 L 7.1875 -100.71875 L 21.578125 -100.71875 L 21.578125 -14.390625 L 79.140625 -14.390625 L 79.140625 0 Z M 7.1875 0"/></g></g></g><g fill-opacity="1" fill="#00ff00"><g transform="translate(176.365553, 291.996055)"><g><path d="M 7.1875 0 L 7.1875 -100.71875 L 64.75 -100.71875 L 64.75 -86.328125 L 21.578125 -86.328125 L 21.578125 -57.5625 L 64.75 -57.5625 L 64.75 -43.171875 L 50.359375 -43.171875 L 50.359375 -28.78125 L 35.96875 -28.78125 L 35.96875 -43.171875 L 21.578125 -43.171875 L 21.578125 0 Z M 50.359375 -14.390625 L 50.359375 -28.78125 L 64.75 -28.78125 L 64.75 -14.390625 Z M 64.75 0 L 64.75 -14.390625 L 79.140625 -14.390625 L 79.140625 0 Z M 64.75 -57.5625 L 64.75 -86.328125 L 79.140625 -86.328125 L 79.140625 -57.5625 Z M 64.75 -57.5625"/></g></g></g></svg>