<svg xmlns="http://www.w3.org/2000/svg" xmlns:xlink="http://www.w3.org/1999/xlink" width="427" zoomAndPan="magnify" viewBox="0 0 320.25 329.249988" height="439" preserveAspectRatio="xMidYMid meet" version="1.0"><defs><clipPath id="52721008e1"><path d="M 83.761719 254.203125 L 214.578125 254.203125 L 214.578125 269.796875 L 83.761719 269.796875 Z M 83.761719 254.203125 " clip-rule="nonzero"/></clipPath><clipPath id="faaca4eb62"><path d="M 0.761719 0.203125 L 131.578125 0.203125 L 131.578125 15.796875 L 0.761719 15.796875 Z M 0.761719 0.203125 " clip-rule="nonzero"/></clipPath><clipPath id="dfa545519c"><rect x="0" width="132" y="0" height="16"/></clipPath><clipPath id="9d74f3aeff"><path d="M 0 0.0117188 L 319 0.0117188 L 319 328.492188 L 0 328.492188 Z M 0 0.0117188 " clip-rule="nonzero"/></clipPath><clipPath id="0e12601082"><path d="M 159.476562 0.0117188 C 71.363281 0.0117188 0 73.566406 0 164.125 C 0 254.683594 71.363281 328.367188 159.476562 328.367188 C 247.585938 328.367188 318.953125 254.8125 318.953125 164.253906 C 318.953125 73.695312 247.457031 0.0117188 159.476562 0.0117188 Z M 258.277344 94.046875 C 272.449219 94.046875 283.914062 105.898438 283.914062 120.453125 C 283.914062 135.011719 272.449219 146.863281 258.277344 146.863281 C 244.109375 146.863281 232.644531 135.011719 232.644531 120.453125 C 232.644531 105.898438 244.109375 94.046875 258.277344 94.046875 Z M 167.460938 31.183594 C 197.605469 31.183594 222.082031 56.304688 222.082031 87.347656 C 222.082031 118.394531 197.605469 143.511719 167.460938 143.511719 C 137.320312 143.511719 112.972656 118.394531 112.972656 87.347656 C 112.972656 56.304688 137.320312 31.183594 167.460938 31.183594 Z M 80.253906 94.046875 C 94.421875 94.046875 105.886719 105.898438 105.886719 120.453125 C 105.886719 135.011719 94.421875 146.863281 80.253906 146.863281 C 66.082031 146.863281 54.617188 135.011719 54.617188 120.453125 C 54.617188 105.898438 66.082031 94.046875 80.253906 94.046875 Z M 55.777344 231.109375 C 44.699219 231.109375 35.683594 222.992188 35.683594 212.945312 C 35.683594 184.476562 57.453125 161.417969 84.246094 161.417969 L 95.839844 161.417969 C 81.542969 173.65625 72.265625 193.75 72.265625 216.292969 C 72.265625 221.832031 74.199219 226.988281 77.289062 231.109375 Z M 225.558594 238.453125 L 98.289062 238.453125 C 86.179688 238.453125 76.386719 228.273438 76.386719 215.90625 C 76.386719 180.484375 100.089844 151.757812 129.332031 151.757812 L 194.515625 151.757812 C 223.753906 151.757812 247.457031 180.355469 247.457031 215.78125 C 247.457031 228.273438 237.667969 238.578125 225.558594 238.578125 Z M 271.804688 230.851562 L 248.617188 230.851562 C 250.9375 227.117188 252.351562 222.734375 252.351562 217.96875 C 252.351562 194.136719 241.917969 173.140625 226.332031 161.160156 L 243.59375 161.160156 C 270.386719 161.160156 292.15625 184.21875 292.15625 212.558594 C 292.15625 222.605469 283.140625 230.851562 272.0625 230.851562 Z M 271.804688 230.851562 " clip-rule="nonzero"/></clipPath><clipPath id="7a94289b16"><path d="M 0 0.0117188 L 318.933594 0.0117188 L 318.933594 328.492188 L 0 328.492188 Z M 0 0.0117188 " clip-rule="nonzero"/></clipPath><clipPath id="520c773abf"><path d="M 159.476562 0.0117188 C 71.363281 0.0117188 0 73.566406 0 164.125 C 0 254.683594 71.363281 328.367188 159.476562 328.367188 C 247.585938 328.367188 318.953125 254.8125 318.953125 164.253906 C 318.953125 73.695312 247.457031 0.0117188 159.476562 0.0117188 Z M 258.277344 94.046875 C 272.449219 94.046875 283.914062 105.898438 283.914062 120.453125 C 283.914062 135.011719 272.449219 146.863281 258.277344 146.863281 C 244.109375 146.863281 232.644531 135.011719 232.644531 120.453125 C 232.644531 105.898438 244.109375 94.046875 258.277344 94.046875 Z M 167.460938 31.183594 C 197.605469 31.183594 222.082031 56.304688 222.082031 87.347656 C 222.082031 118.394531 197.605469 143.511719 167.460938 143.511719 C 137.320312 143.511719 112.972656 118.394531 112.972656 87.347656 C 112.972656 56.304688 137.320312 31.183594 167.460938 31.183594 Z M 80.253906 94.046875 C 94.421875 94.046875 105.886719 105.898438 105.886719 120.453125 C 105.886719 135.011719 94.421875 146.863281 80.253906 146.863281 C 66.082031 146.863281 54.617188 135.011719 54.617188 120.453125 C 54.617188 105.898438 66.082031 94.046875 80.253906 94.046875 Z M 55.777344 231.109375 C 44.699219 231.109375 35.683594 222.992188 35.683594 212.945312 C 35.683594 184.476562 57.453125 161.417969 84.246094 161.417969 L 95.839844 161.417969 C 81.542969 173.65625 72.265625 193.75 72.265625 216.292969 C 72.265625 221.832031 74.199219 226.988281 77.289062 231.109375 Z M 225.558594 238.453125 L 98.289062 238.453125 C 86.179688 238.453125 76.386719 228.273438 76.386719 215.90625 C 76.386719 180.484375 100.089844 151.757812 129.332031 151.757812 L 194.515625 151.757812 C 223.753906 151.757812 247.457031 180.355469 247.457031 215.78125 C 247.457031 228.273438 237.667969 238.578125 225.558594 238.578125 Z M 271.804688 230.851562 L 248.617188 230.851562 C 250.9375 227.117188 252.351562 222.734375 252.351562 217.96875 C 252.351562 194.136719 241.917969 173.140625 226.332031 161.160156 L 243.59375 161.160156 C 270.386719 161.160156 292.15625 184.21875 292.15625 212.558594 C 292.15625 222.605469 283.140625 230.851562 272.0625 230.851562 Z M 271.804688 230.851562 " clip-rule="nonzero"/></clipPath><clipPath id="9c3878a1b7"><rect x="0" width="319" y="0" height="329"/></clipPath></defs><g clip-path="url(#52721008e1)"><g transform="matrix(1, 0, 0, 1, 83, 254)"><g clip-path="url(#dfa545519c)"><g clip-path="url(#faaca4eb62)"><path fill="#0dff00" d="M 0.761719 0.203125 L 131.5625 0.203125 L 131.5625 15.796875 L 0.761719 15.796875 Z M 0.761719 0.203125 " fill-opacity="1" fill-rule="nonzero"/></g></g></g></g><g clip-path="url(#9d74f3aeff)"><g clip-path="url(#0e12601082)"><g transform="matrix(1, 0, 0, 1, 0, -0.000000000000034681)"><g clip-path="url(#9c3878a1b7)"><g clip-path="url(#7a94289b16)"><g clip-path="url(#520c773abf)"><path fill="#000000" d="M 0 0.0117188 L 318.824219 0.0117188 L 318.824219 328.796875 L 0 328.796875 Z M 0 0.0117188 " fill-opacity="1" fill-rule="nonzero"/></g></g></g></g></g></g></svg>